Chaos breaks out in a small Maryland town after an ecological disaster occurs.

The Bay.2012.VODRip.H264.AC3.HS(Happy Halloween)
 
http://www.imdb.com/title/tt1713476/

File size : 1.41 GiB
Duration : 1h 25mn
Overall bit rate : 2 374 Kbps

ID : 1
Format : MPEG-4 Visual
Format profile : Simple@L1
Format settings, BVOP : No
Format settings, QPel : No
Format settings, GMC : No warppoints
Format settings, Matrix : Default (H.263)
Duration : 1h 25mn
Bit rate : 1 943 Kbps
Width : 640 pixels
Height : 360 pixels
Display aspect ratio : 16:9
Frame rate mode : Constant
Frame rate : 23.976 fps
Color space : YUV
Chroma subsampling : 4:2:0
Bit depth : 8 bits
Scan type : Progressive
Compression mode : Lossy
Bits/(Pixel*Frame) : 0.352
Stream size : 1.16 GiB (82%)
Writing library : Lavc52.116.0
Default : Yes
Forced : No

Audio
ID : 2
Format : AC-3
Format/Info : Audio Coding 3
Mode extension : CM (complete main)
Format settings, Endianness : Big
Muxing mode : Header stripping
Codec ID : A_AC3
Duration : 1h 25mn
Bit rate mode : Constant
Bit rate : 384 Kbps
Channel(s) : 2 channels
Channel positions : Front: L R
Sampling rate : 44.1 KHz
Bit depth : 16 bits
Compression mode : Lossy
Stream size : 234 MiB (16%)
Default : Yes
Forced : No


Note - We Already Stopped Doing Outside Upload..But This One Is For Our
Well Wisher And Follower..Watch It The Same Date Of Release In Theater..
And Its A Halloween Gift From Us To All The Movie Lovers Enjoy The Movie..
A little Thanks Always Appreciated...
 
http://old.rapidimg.org/images/jUzaK.jpg 
http://old.rapidimg.org/images/bDLF.jpg 
http://old.rapidimg.org/images/eIFOC.jpg 
http://old.rapidimg.org/images/ukl6q.jpg 
http://old.rapidimg.org/images/SmPOT.jpg